<?xml version="1.0" standalone="no"?>
<!DOCTYPE svg PUBLIC "-//W3C//DTD SVG 20010904//EN"
 "http://www.w3.org/TR/2001/REC-SVG-20010904/DTD/svg10.dtd">
<svg version="1.0" xmlns="http://www.w3.org/2000/svg"
 width="320.000000pt" height="320.000000pt" viewBox="0 0 320.000000 320.000000"
 preserveAspectRatio="xMidYMid meet">
<metadata>
Created by potrace 1.14, written by Peter Selinger 2001-2017
</metadata>
<g transform="translate(0.000000,320.000000) scale(0.100000,-0.100000)"
fill="#000000" stroke="none">
<path d="M0 1600 l0 -1600 1600 0 1600 0 0 1600 0 1600 -1600 0 -1600 0 0
-1600z m1389 1339 c-19 -12 -24 -2 -8 17 9 11 14 13 17 4 3 -7 -2 -16 -9 -21z
m-34 -29 c3 -6 -1 -7 -9 -4 -18 7 -21 14 -7 14 6 0 13 -4 16 -10z m154 -46
c-5 -6 0 -16 11 -24 11 -8 20 -22 20 -32 0 -16 29 -25 63 -19 4 1 10 -7 14
-16 3 -10 15 -26 27 -35 12 -9 22 -22 22 -27 1 -6 2 -15 3 -21 0 -5 11 -10 22
-10 12 0 28 -8 34 -17 9 -13 26 -17 57 -17 23 1 37 -1 30 -3 -6 -3 -10 -8 -8
-11 2 -4 -16 -5 -40 -3 -41 3 -44 1 -44 -21 0 -13 5 -29 12 -36 13 -13 20 -42
19 -92 0 -25 3 -30 9 -20 7 11 10 8 10 -12 0 -17 8 -33 20 -40 24 -15 27 -43
5 -34 -14 5 -15 -3 -12 -57 5 -71 -11 -135 -42 -168 -11 -13 -21 -28 -21 -35
0 -6 -7 -17 -15 -24 -8 -7 -15 -28 -15 -46 0 -19 -4 -34 -10 -34 -6 0 -6 -9 0
-26 15 -38 12 -48 -7 -33 -9 8 -14 9 -10 3 4 -7 0 -15 -9 -18 -10 -4 -14 -14
-11 -26 4 -17 2 -18 -15 -9 -14 8 -19 18 -15 35 2 13 3 24 1 24 -9 0 -64 -94
-64 -110 0 -10 -8 -23 -17 -29 -15 -8 -15 -11 -3 -26 12 -14 11 -21 -5 -51
-10 -19 -26 -34 -36 -34 -24 0 -31 -25 -18 -76 10 -37 9 -48 -5 -69 -9 -14
-21 -23 -27 -20 -5 4 -4 -5 2 -19 7 -14 16 -23 21 -20 4 3 11 -2 14 -10 3 -9
14 -16 23 -16 15 0 17 -6 11 -45 -4 -25 -3 -45 2 -45 5 0 7 -4 3 -10 -3 -5 6
-17 20 -26 14 -9 25 -23 25 -31 0 -11 7 -13 24 -9 15 4 28 0 36 -9 17 -20 5
-46 -17 -38 -15 5 -15 3 3 -18 12 -13 20 -29 17 -35 -5 -16 33 -24 46 -11 9 9
13 6 17 -11 4 -12 10 -19 15 -16 11 7 49 -55 49 -82 0 -25 18 -44 42 -44 10 0
18 -7 18 -15 0 -17 67 -48 88 -40 20 8 54 -14 48 -31 -3 -8 1 -17 10 -21 9 -3
20 -17 25 -30 9 -24 9 -24 47 21 40 49 49 53 76 33 16 -12 17 -16 5 -35 -12
-19 -10 -23 14 -42 15 -12 27 -31 27 -42 0 -18 4 -20 30 -14 19 3 29 2 25 -4
-3 -6 -13 -10 -21 -10 -9 0 -14 -6 -11 -12 2 -7 10 -12 17 -10 7 2 16 -2 20
-7 3 -6 27 -12 53 -13 26 -2 47 -6 47 -10 0 -14 18 -8 24 8 3 8 2 12 -4 9 -6
-3 -10 1 -10 9 0 27 31 15 43 -17 9 -23 60 -22 116 3 47 22 71 25 71 10 0 -5
-8 -7 -17 -4 -16 5 -16 4 1 -10 11 -9 16 -22 12 -31 -4 -13 -1 -15 14 -10 15
5 18 3 14 -9 -3 -9 -1 -16 6 -16 6 0 9 4 5 9 -3 6 3 15 14 20 14 8 22 7 31 -4
19 -23 46 -18 83 15 19 17 40 30 46 30 6 0 11 5 11 11 0 5 4 7 10 4 6 -4 7 1
3 11 -5 13 -2 15 14 10 12 -4 25 -1 33 9 17 20 54 20 46 0 -6 -16 18 -17 42
-1 7 4 16 6 19 3 9 -10 -16 -71 -43 -102 -14 -16 -30 -39 -35 -50 -19 -40 -34
-60 -46 -61 -29 -2 -32 -5 -27 -19 4 -9 0 -15 -10 -15 -9 0 -16 -5 -16 -11 0
-6 -9 -8 -20 -4 -11 4 -20 2 -20 -4 0 -6 -6 -11 -12 -12 -7 0 -26 -21 -43 -46
-36 -57 -86 -87 -126 -78 -18 4 -29 2 -29 -4 0 -19 -30 -12 -31 7 0 14 -2 14
-8 -3 -5 -11 -6 -26 -3 -34 3 -9 1 -12 -6 -7 -8 4 -10 2 -6 -7 7 -20 -7 -27
-67 -32 -29 -3 -57 -9 -64 -15 -14 -12 -92 -3 -101 11 -5 9 10 13 35 9 13 -1
13 1 2 14 -16 19 -35 21 -26 4 4 -7 -1 -4 -9 6 -9 11 -24 20 -33 21 -27 2 -76
51 -67 67 4 7 3 10 -1 5 -13 -11 -45 24 -45 49 0 17 -7 26 -27 31 -16 4 -34 6
-40 5 -7 -2 -13 4 -13 13 0 15 -21 21 -33 9 -10 -10 15 -54 32 -54 11 -1 9 -5
-7 -13 -12 -7 -20 -16 -17 -19 3 -3 -6 -9 -21 -12 -20 -5 -32 -2 -48 13 -12
12 -29 21 -37 21 -8 0 -22 7 -32 15 -11 7 -25 11 -32 9 -7 -3 -16 -1 -20 5 -3
7 2 11 14 11 11 0 23 5 26 10 3 6 1 10 -5 10 -13 0 -7 40 11 67 18 30 5 53
-30 53 -20 0 -34 7 -41 20 -6 11 -8 20 -5 20 4 0 -3 14 -15 30 -15 21 -36 34
-67 43 -29 7 -48 19 -51 29 -2 10 -8 18 -13 18 -5 0 -9 9 -9 20 0 25 -29 60
-50 60 -17 0 -52 35 -43 44 3 3 -11 12 -31 21 -20 8 -52 22 -71 30 -39 16 -61
56 -46 83 7 12 2 25 -20 50 -16 18 -29 40 -29 49 0 14 -2 14 -19 -1 -16 -14
-23 -15 -41 -6 -13 7 -20 8 -16 2 8 -14 -32 -42 -59 -42 -16 1 -14 4 10 18 22
12 30 23 27 36 -5 25 -31 51 -51 51 -11 0 -16 10 -17 34 0 42 -48 101 -81 101
-28 0 -29 -14 -3 -40 25 -25 25 -29 1 -23 -14 4 -20 -3 -25 -27 -10 -54 -7
-97 9 -110 18 -15 20 -35 3 -24 -7 4 -8 3 -4 -5 4 -6 4 -17 -1 -24 -5 -7 -9
-63 -9 -124 1 -67 -3 -114 -9 -116 -5 -2 5 -25 23 -50 19 -27 28 -48 22 -52
-14 -9 -2 -25 14 -19 14 6 31 -40 21 -56 -7 -11 -35 -2 -35 12 0 5 5 6 10 3 6
-3 10 1 10 10 0 13 -6 16 -24 11 -14 -3 -28 -1 -31 4 -7 11 -42 9 -61 -2 -5
-4 -9 -21 -8 -37 1 -17 -2 -29 -6 -26 -5 3 -11 1 -14 -3 -3 -5 -13 -8 -23 -7
-27 3 -83 17 -83 21 0 1 4 13 9 26 8 21 5 23 -20 25 -17 1 -29 -3 -29 -10 0
-8 -3 -8 -8 -2 -17 25 -101 47 -86 24 7 -12 -30 -9 -93 8 l-31 8 17 35 c10 19
22 34 28 33 6 -1 10 3 10 10 -1 42 4 56 18 51 8 -4 13 -10 10 -15 -7 -10 56
10 69 22 6 6 3 14 -9 22 -13 10 -16 21 -11 40 4 18 0 37 -14 59 -24 40 -28 66
-6 46 8 -7 12 -17 9 -21 -3 -5 3 -17 13 -28 16 -18 18 -18 36 -3 22 21 23 40
2 52 -25 14 -11 78 19 87 17 5 18 8 7 12 -8 4 -21 12 -28 20 -11 11 -11 13 2
13 16 0 25 25 18 51 -2 10 -11 15 -21 12 -22 -5 -35 29 -18 46 8 8 6 11 -7 11
-9 0 -14 5 -11 10 4 6 10 8 14 6 4 -3 17 23 28 57 16 47 18 67 10 85 -7 16 -7
26 1 34 8 8 7 17 -5 34 -13 20 -13 29 -2 61 18 53 19 142 3 177 -12 26 -12 32
3 48 14 16 15 23 5 38 -15 24 -15 33 -2 25 17 -11 11 7 -8 21 -10 8 -12 13 -4
14 6 0 12 5 12 11 0 5 -5 7 -11 3 -8 -4 -9 1 -3 17 12 37 7 95 -12 131 -22 43
-30 48 -82 48 -43 0 -82 22 -62 35 5 3 10 13 10 21 0 9 -5 12 -12 8 -7 -4 -8
-3 -4 4 4 7 17 12 30 12 30 0 37 9 26 31 -9 17 -8 17 17 3 51 -26 84 -15 52
17 -12 12 -18 31 -17 50 3 40 12 44 32 13 12 -17 23 -23 36 -19 12 4 20 0 24
-12 3 -10 16 -23 28 -28 12 -6 24 -17 26 -25 5 -13 3 -13 -11 -2 -14 12 -16
11 -14 -5 1 -14 9 -19 31 -18 17 0 37 -4 45 -10 11 -7 13 -7 7 3 -11 18 5 14
34 -8 14 -11 34 -20 46 -20 30 0 59 -24 48 -41 -10 -17 -6 -49 8 -66 7 -9 7
-13 0 -13 -10 0 -7 -44 5 -63 3 -5 0 -12 -6 -16 -9 -6 -9 -15 -1 -36 6 -15 8
-42 4 -60 -3 -19 -1 -35 5 -39 6 -4 11 -18 11 -32 0 -14 4 -23 9 -19 6 3 15
-3 20 -14 8 -14 7 -22 -5 -32 -8 -7 -12 -19 -9 -27 3 -8 -2 -26 -11 -40 -15
-23 -15 -25 1 -19 9 4 23 7 31 7 9 0 13 4 9 9 -3 6 2 9 12 7 10 -1 40 18 67
44 l49 47 -34 -5 c-19 -2 -40 -9 -47 -15 -7 -5 -15 -7 -18 -4 -9 8 61 57 82
57 26 0 44 19 44 46 0 25 24 49 40 39 6 -4 20 2 31 14 11 12 16 21 12 21 -4 0
-1 6 5 12 9 9 15 10 20 2 4 -6 23 -15 42 -18 21 -5 30 -4 22 2 -7 5 -11 15 -8
23 2 8 7 27 11 43 6 27 7 27 20 10 15 -20 15 -21 19 29 1 6 9 18 19 25 9 7 17
23 17 35 0 30 15 51 30 42 7 -4 16 -2 21 6 5 8 9 9 9 3 0 -6 -9 -19 -20 -29
-40 -36 -14 -79 30 -48 15 11 19 18 11 26 -12 12 -15 41 -3 33 4 -2 20 20 35
50 15 31 23 53 18 50 -5 -3 -12 1 -15 9 -3 10 6 26 25 43 27 25 30 31 23 70
-3 23 -11 42 -16 42 -5 0 -4 9 2 20 6 11 14 19 18 16 14 -9 12 76 -4 124 -13
39 -21 50 -38 50 -17 0 -18 2 -6 10 12 7 12 12 2 22 -6 6 -12 19 -12 28 0 27
-35 53 -62 45 -17 -5 -19 -4 -8 4 12 8 12 12 -3 29 -11 12 -26 18 -38 15 -14
-4 -18 -1 -14 9 7 18 -34 57 -71 67 -18 4 -30 15 -31 27 -2 10 0 13 3 7 8 -18
41 -16 48 2 4 12 11 11 39 -8 22 -14 31 -26 26 -33z m70 -49 c-11 -11 -32 18
-34 48 -1 14 3 12 21 -10 15 -18 19 -31 13 -38z m-625 -316 c-3 -5 -10 -7 -15
-3 -5 3 -7 10 -3 15 3 5 10 7 15 3 5 -3 7 -10 3 -15z m-279 -158 c-3 -6 -11
-9 -16 -6 -5 4 -9 -2 -10 -12 0 -10 -3 -13 -5 -6 -8 19 16 57 28 45 6 -6 7
-15 3 -21z m792 -58 c-11 -11 -20 -12 -33 -5 -10 6 -29 6 -46 1 -21 -6 -28 -5
-25 4 4 13 70 25 100 18 16 -3 17 -5 4 -18z m-36 -46 c-10 -9 -11 -8 -5 6 3
10 9 15 12 12 3 -3 0 -11 -7 -18z m-12 -37 c7 -17 25 -45 39 -61 21 -25 23
-32 11 -40 -15 -9 -39 14 -39 38 0 8 -9 32 -20 53 -11 22 -17 40 -13 40 5 0
14 -14 22 -30z m-61 -190 c-7 -11 -16 -20 -20 -20 -4 0 -15 -9 -25 -20 -19
-20 -63 -18 -63 2 0 6 11 7 24 4 16 -4 28 -1 33 7 7 12 53 47 60 47 2 0 -2 -9
-9 -20z m-619 -47 c-1 -10 3 -36 9 -57 6 -22 10 -41 8 -43 -2 -2 -16 17 -31
43 -27 45 -27 48 -9 61 23 17 26 17 23 -4z m971 -749 c0 -20 -7 -17 -20 6 -9
16 -8 18 5 14 8 -4 15 -12 15 -20z m-229 -262 c-7 -2 -18 1 -23 6 -8 8 -4 9
13 5 13 -4 18 -8 10 -11z m1356 -49 c-9 -8 -48 8 -42 18 4 5 14 5 26 -2 12 -6
18 -13 16 -16z m-449 -35 c7 -7 12 -19 12 -27 0 -11 -5 -8 -16 8 -15 20 -23
23 -62 18 -27 -3 -39 -1 -31 4 20 13 83 11 97 -3z m-144 -16 c3 -5 -1 -9 -9
-9 -8 0 -12 4 -9 9 3 4 7 8 9 8 2 0 6 -4 9 -8z m52 -44 c-6 -4 -20 -8 -30 -8
-19 0 -19 0 0 18 13 13 22 15 30 8 9 -8 9 -13 0 -18z m414 -3 c-13 -14 -27
-25 -31 -25 -3 0 5 13 20 29 14 16 28 27 30 25 3 -2 -6 -15 -19 -29z m-1715
-65 c1 -10 -2 -17 -6 -14 -4 2 -7 13 -6 24 2 23 10 17 12 -10z m62 -22 c-3 -8
-6 -5 -6 6 -1 11 2 17 5 13 3 -3 4 -12 1 -19z m383 -3 c0 -8 -2 -15 -4 -15 -2
0 -6 7 -10 15 -3 8 -1 15 4 15 6 0 10 -7 10 -15z m-400 -41 c0 -2 -11 -3 -24
-2 -14 1 -23 5 -20 9 4 7 44 0 44 -7z m520 -26 c0 -16 -3 -17 -20 -8 -11 6
-20 14 -20 18 0 4 9 8 20 8 13 0 20 -7 20 -18z m241 -20 c10 -18 9 -20 -5 -15
-11 5 -16 1 -16 -13 0 -22 -16 -35 -25 -20 -7 12 16 70 27 70 4 0 12 -10 19
-22z m-231 -18 c0 -5 -2 -10 -4 -10 -3 0 -8 5 -11 10 -3 6 -1 10 4 10 6 0 11
-4 11 -10z m175 -100 c4 -6 11 -8 16 -5 5 4 9 -1 9 -9 0 -22 -12 -20 -33 4 -9
11 -13 20 -7 20 5 0 12 -5 15 -10z m117 -31 c-13 -5 -26 -18 -29 -29 -4 -16
-8 -18 -19 -9 -8 6 -14 8 -14 4 0 -4 -7 -2 -15 5 -8 7 -12 17 -9 22 4 6 9 6
14 -2 6 -9 14 -9 36 3 16 8 36 15 44 15 8 1 4 -3 -8 -9z m86 -44 c-3 -3 -9 2
-12 12 -6 14 -5 15 5 6 7 -7 10 -15 7 -18z m-3 -25 c-8 -13 -57 -19 -82 -9
-40 15 -25 24 32 21 30 -2 53 -7 50 -12z m261 -44 c3 -23 -20 -15 -24 8 -3 11
1 17 9 14 7 -2 13 -12 15 -22z"/>
<path d="M727 2329 c7 -7 15 -10 18 -7 3 3 -2 9 -12 12 -14 6 -15 5 -6 -5z"/>
<path d="M1329 1929 c-23 -19 -23 -20 -2 -10 12 6 25 16 28 21 10 16 -1 12
-26 -11z"/>
<path d="M900 1849 c6 -11 15 -17 21 -14 15 10 10 -12 -6 -29 -14 -13 -13 -18
8 -49 l23 -34 2 56 c2 53 0 57 -28 73 -30 17 -30 17 -20 -3z"/>
<path d="M918 1673 c7 -3 16 -2 19 1 4 3 -2 6 -13 5 -11 0 -14 -3 -6 -6z"/>
<path d="M1427 1656 c-5 -15 -6 -31 -3 -34 8 -8 18 25 14 45 -3 13 -6 10 -11
-11z"/>
<path d="M895 1640 c-3 -5 -1 -19 5 -30 12 -23 22 -27 14 -6 -3 8 0 17 5 21
12 7 5 25 -9 25 -5 0 -12 -4 -15 -10z"/>
<path d="M757 1390 c-3 -11 -2 -22 2 -24 4 -3 8 6 9 20 2 29 -4 31 -11 4z"/>
<path d="M910 1274 c0 -1 6 -7 14 -13 10 -9 15 -8 19 3 4 10 0 14 -14 13 -10
-1 -19 -2 -19 -3z"/>
<path d="M1597 1024 c-8 -8 1 -24 14 -24 5 0 9 7 9 15 0 15 -12 20 -23 9z"/>
<path d="M1683 1003 c4 -6 1 -18 -7 -26 -16 -16 -11 -28 8 -21 14 5 15 39 1
51 -4 5 -5 3 -2 -4z"/>
<path d="M1873 883 c-9 -3 -8 -14 2 -43 7 -21 12 -40 10 -42 -3 -2 7 -4 20 -3
14 0 25 5 25 10 -1 37 -35 85 -57 78z"/>
<path d="M2120 855 c7 -9 15 -13 17 -11 7 7 -7 26 -19 26 -6 0 -6 -6 2 -15z"/>
<path d="M2345 740 c-3 -5 -3 -16 2 -22 4 -7 7 -22 6 -33 -1 -16 -1 -16 3 -2
3 9 10 17 15 17 5 0 9 7 9 16 0 8 -4 12 -10 9 -6 -3 -7 1 -4 9 7 17 -11 22
-21 6z"/>
<path d="M2426 725 c4 -8 9 -15 13 -15 4 0 8 7 8 15 0 8 -6 15 -13 15 -8 0
-11 -6 -8 -15z"/>
<path d="M2535 710 c3 -5 11 -10 16 -10 6 0 7 5 4 10 -3 6 -11 10 -16 10 -6 0
-7 -4 -4 -10z"/>
<path d="M2510 675 c-7 -9 -8 -15 -2 -15 5 0 12 7 16 15 3 8 4 15 2 15 -2 0
-9 -7 -16 -15z"/>
<path d="M2145 490 c-3 -5 0 -19 8 -31 18 -25 33 -8 17 21 -12 23 -16 24 -25
10z"/>
<path d="M2477 494 c-10 -11 3 -24 24 -24 23 0 25 15 3 24 -19 7 -19 7 -27 0z"/>
<path d="M2534 485 c-3 -8 -4 -20 -1 -27 4 -8 6 -6 6 5 1 9 6 17 11 17 6 0 10
5 10 10 0 15 -20 12 -26 -5z"/>
<path d="M2198 453 c-6 -7 -7 -13 -2 -13 5 0 2 -5 -6 -10 -12 -8 -9 -10 12
-10 15 0 32 -8 37 -17 6 -10 11 -13 11 -6 0 19 37 36 46 21 4 -6 3 -8 -4 -4
-6 3 -13 2 -17 -4 -10 -15 38 -12 61 5 12 8 24 12 27 9 3 -3 4 2 2 13 -2 10
-4 21 -4 24 -2 11 -153 4 -163 -8z"/>
<path d="M2375 404 c-16 -12 -16 -14 -3 -10 9 3 19 -2 23 -11 4 -13 8 -14 17
-5 9 9 9 16 -3 27 -13 14 -17 13 -34 -1z"/>
<path d="M2277 364 c3 -8 12 -13 19 -10 8 3 14 1 14 -5 0 -6 4 -8 10 -4 16 10
-1 35 -26 35 -17 0 -22 -4 -17 -16z"/>
</g>
</svg>
